<?xml version="1.0" encoding="UTF-8" standalone="no"?>
<svg
   viewBox="0 0 576 512"
   version="1.1"
   id="svg621"
   sodipodi:docname="star-solid.svg"
   inkscape:version="1.2.1 (9c6d41e, 2022-07-14)"
   inkscape:export-filename="exports/star-solid.svg"
   inkscape:export-xdpi="96"
   inkscape:export-ydpi="96"
   xmlns:inkscape="http://www.inkscape.org/namespaces/inkscape"
   xmlns:sodipodi="http://sodipodi.sourceforge.net/DTD/sodipodi-0.dtd"
   xmlns="http://www.w3.org/2000/svg"
   xmlns:svg="http://www.w3.org/2000/svg">
  <defs
     id="defs625" />
  <sodipodi:namedview
     id="namedview623"
     pagecolor="#ffffff"
     bordercolor="#cccccc"
     borderopacity="1"
     inkscape:showpageshadow="0"
     inkscape:pageopacity="1"
     inkscape:pagecheckerboard="0"
     inkscape:deskcolor="#d1d1d1"
     showgrid="false"
     inkscape:zoom="1.3037281"
     inkscape:cx="302.59376"
     inkscape:cy="269.61143"
     inkscape:window-width="1398"
     inkscape:window-height="933"
     inkscape:window-x="1115"
     inkscape:window-y="289"
     inkscape:window-maximized="0"
     inkscape:current-layer="svg621" />
  <!--! Font Awesome Pro 6.2.0 by @fontawesome - https://fontawesome.com License - https://fontawesome.com/license (Commercial License) Copyright 2022 Fonticons, Inc. -->
  <path
     id="path619"
     d="M 287.90039 0 C 278.7004 2.3684734e-15 270.40078 5.2485395 266.30078 13.519531 L 197.69922 154.80078 L 44.490234 177.5 C 35.500243 178.8 28.029216 185.09923 25.199219 193.69922 C 22.359222 202.39921 24.649381 211.89923 31.109375 218.19922 L 142.19922 328.40039 L 115.09961 483.90039 C 114.49961 492.90038 118.19962 502.1004 125.59961 507.40039 C 133.0996 512.70039 142.89962 513.39961 150.09961 509.09961 L 287.90039 435.90039 L 424.90039 509.09961 C 432.10038 513.39961 442.79923 512.70039 450.19922 507.40039 C 457.69921 502.1004 461.40039 492.90038 459.90039 483.90039 L 433.59961 328.40039 L 544.80078 218.19922 C 551.20077 211.89923 553.49922 202.39921 550.69922 193.69922 C 547.79922 185.09923 540.40038 178.8 531.40039 177.5 L 378.09961 154.80078 L 309.5 13.519531 C 305.5 5.2495395 297.10038 0 287.90039 0 z " />
</svg>
