<?xml version="1.0" encoding="UTF-8" standalone="no"?>
<svg
   viewBox="0 0 304056.09 262095.91"
   version="1.1"
   id="svg4"
   width="304056.09"
   height="262095.91"
   xmlns="http://www.w3.org/2000/svg"
   xmlns:svg="http://www.w3.org/2000/svg">
  <defs
     id="defs8" />
  <!--! Font Awesome Pro 6.2.0 by @fontawesome - https://fontawesome.com License - https://fontawesome.com/license (Commercial License) Copyright 2022 Fonticons, Inc. -->
  <path
     id="path2"
     d="m -13535.452,0 c -9.2,0 -17.5,5.2485395 -21.6,13.519531 l -68.601,141.281249 -153.209,22.69922 c -8.99,1.3 -16.461,7.59923 -19.291,16.19922 -2.84,8.69999 -0.55,18.20001 5.91,24.5 l 111.09,110.20117 -27.1,155.5 c -0.6,8.99999 3.1,18.20001 10.5,23.5 7.5,5.3 17.3,5.99922 24.5,1.69922 l 137.801,-73.19922 137,73.19922 c 7.2,4.3 17.899,3.60078 25.299,-1.69922 7.5,-5.29999 11.201,-14.50001 9.701,-23.5 l -26.301,-155.5 111.201,-110.20117 c 6.4,-6.29999 8.699,-15.80001 5.899,-24.5 -2.9,-8.59999 -10.299,-14.89922 -19.299,-16.19922 l -153.301,-22.69922 -68.6,-141.281249 C -13517.853,5.2495395 -13526.252,0 -13535.452,0 Z m 0.1,79.154297 52.5,108.044923 c 3.4,7.09999 10.2,12.10078 18.1,13.30078 l 118.301,17.40039 -85.901,85.09961 c -5.5,5.49999 -8.1,13.39962 -6.8,21.09961 l 20.201,119.59961 -105.201,-56.19922 c -3.481,-1.88972 -7.333,-2.83157 -11.2,-2.8418 z" />
</svg>
