<?xml version="1.0" encoding="UTF-8" standalone="no"?>
<svg
   viewBox="0 0 304056.09 262095.91"
   version="1.1"
   id="svg4"
   sodipodi:docname="star-3quarter.svg"
   inkscape:version="1.2.1 (9c6d41e, 2022-07-14)"
   inkscape:export-filename="exports/star-3quarter.svg"
   inkscape:export-xdpi="96"
   inkscape:export-ydpi="96"
   width="304056.09"
   height="262095.91"
   xmlns:inkscape="http://www.inkscape.org/namespaces/inkscape"
   xmlns:sodipodi="http://sodipodi.sourceforge.net/DTD/sodipodi-0.dtd"
   xmlns="http://www.w3.org/2000/svg"
   xmlns:svg="http://www.w3.org/2000/svg">
  <defs
     id="defs8" />
  <sodipodi:namedview
     id="namedview6"
     pagecolor="#ffffff"
     bordercolor="#cccccc"
     borderopacity="1"
     inkscape:showpageshadow="0"
     inkscape:pageopacity="1"
     inkscape:pagecheckerboard="0"
     inkscape:deskcolor="#d1d1d1"
     showgrid="false"
     inkscape:zoom="1.3037281"
     inkscape:cx="311.03111"
     inkscape:cy="277.66525"
     inkscape:window-width="1850"
     inkscape:window-height="1144"
     inkscape:window-x="1101"
     inkscape:window-y="186"
     inkscape:window-maximized="0"
     inkscape:current-layer="svg4" />
  <!--! Font Awesome Pro 6.2.0 by @fontawesome - https://fontawesome.com License - https://fontawesome.com/license (Commercial License) Copyright 2022 Fonticons, Inc. -->
  <path
     id="path2"
     d="m -13535.452,0 c -9.2,0 -17.5,5.2485395 -21.6,13.519531 l -68.601,141.281249 -153.209,22.69922 c -8.99,1.3 -16.461,7.59923 -19.291,16.19922 -2.84,8.69999 -0.55,18.20001 5.91,24.5 l 111.09,110.20117 -27.1,155.5 c -0.6,8.99999 3.1,18.20001 10.5,23.5 7.5,5.3 17.3,5.99922 24.5,1.69922 l 137.801,-73.19922 137,73.19922 c 7.2,4.3 17.899,3.60078 25.299,-1.69922 7.5,-5.29999 11.201,-14.50001 9.701,-23.5 l -26.301,-155.5 111.201,-110.20117 c 6.4,-6.29999 8.699,-15.80001 5.899,-24.5 -2.9,-8.59999 -10.299,-14.89922 -19.299,-16.19922 l -153.301,-22.69922 -68.6,-141.281249 C -13517.853,5.2495395 -13526.252,0 -13535.452,0 Z m 78.099,201.58789 110.901,16.3125 -85.901,85.09961 c -5.5,5.49999 -8.1,13.39962 -6.8,21.09961 l 20.201,119.59961 -38.401,-20.51367 z" />
</svg>
