<?xml version="1.0" encoding="UTF-8" standalone="no"?>
<svg
   viewBox="0 0 304055.94 262095.95"
   version="1.1"
   id="svg621"
   sodipodi:docname="star-regular.svg"
   inkscape:version="1.2.1 (9c6d41e, 2022-07-14)"
   width="304055.94"
   height="262095.95"
   xmlns:inkscape="http://www.inkscape.org/namespaces/inkscape"
   xmlns:sodipodi="http://sodipodi.sourceforge.net/DTD/sodipodi-0.dtd"
   xmlns="http://www.w3.org/2000/svg"
   xmlns:svg="http://www.w3.org/2000/svg">
  <defs
     id="defs625" />
  <sodipodi:namedview
     id="namedview623"
     pagecolor="#ffffff"
     bordercolor="#cccccc"
     borderopacity="1"
     inkscape:showpageshadow="0"
     inkscape:pageopacity="1"
     inkscape:pagecheckerboard="0"
     inkscape:deskcolor="#d1d1d1"
     showgrid="false"
     inkscape:zoom="0.4609375"
     inkscape:cx="300.47458"
     inkscape:cy="267.9322"
     inkscape:window-width="1398"
     inkscape:window-height="933"
     inkscape:window-x="1115"
     inkscape:window-y="289"
     inkscape:window-maximized="0"
     inkscape:current-layer="svg621" />
  <!--! Font Awesome Pro 6.2.0 by @fontawesome - https://fontawesome.com License - https://fontawesome.com/license (Commercial License) Copyright 2022 Fonticons, Inc. -->
  <path
     d="m -13535.884,0 c 9.2,0 17.6,5.25 21.6,13.52 l 68.6,141.28 153.3,22.7 c 9,1.3 16.4,7.6 19.3,16.2 2.8,8.7 0.5,18.2 -5.9,24.5 l -111.2,110.2 26.3,155.5 c 1.5,9 -2.2,18.2 -9.7,23.5 -7.4,5.3 -18.1,6 -25.3,1.7 l -137,-73.2 -137.8,73.2 c -7.2,4.3 -17,3.6 -24.5,-1.7 -7.4,-5.3 -11.1,-14.5 -10.5,-23.5 l 27.1,-155.5 -111.09,-110.2 c -6.46,-6.3 -8.75,-15.8 -5.91,-24.5 2.83,-8.6 10.3,-14.9 19.29,-16.2 l 153.21,-22.7 68.6,-141.28 c 4.1,-8.271 12.4,-13.52 21.6,-13.52 z m 0,78.95 -52.5,108.25 c -3.5,7.1 -10.3,12.1 -18.1,13.3 l -118.32,17.4 85.92,85.1 c 5.5,5.5 8,13.4 6.7,21.1 l -20.2,119.6 105.2,-56.2 c 7.1,-3.8 15.6,-3.8 22.6,0 l 105.2,56.2 -20.2,-119.6 c -1.3,-7.7 1.3,-15.6 6.8,-21.1 l 85.9,-85.1 -118.3,-17.4 c -7.9,-1.2 -14.7,-6.2 -18.1,-13.3 z"
     id="path619" />
</svg>
